# Blender 4.0.1
# www.blender.org
mtllib tun.mtl
o Cylinder
v 1.027721 1.444596 -2.496359
v 2.316656 1.368173 -5.426456
v 1.043366 1.445830 -2.489509
v 2.332301 1.369407 -5.419607
v 1.058445 1.449621 -2.482975
v 2.347380 1.373198 -5.413073
v 1.072378 1.455824 -2.477007
v 2.361313 1.379401 -5.407105
v 1.084629 1.464200 -2.471837
v 2.373564 1.387777 -5.401935
v 1.094728 1.474427 -2.467661
v 2.383663 1.398004 -5.397758
v 1.102286 1.486113 -2.464641
v 2.391221 1.409690 -5.394739
v 1.107013 1.498807 -2.462893
v 2.395948 1.422384 -5.392990
v 1.108728 1.512024 -2.462483
v 2.397663 1.435601 -5.392581
v 1.107364 1.525253 -2.463428
v 2.396299 1.448830 -5.393526
v 1.102975 1.537988 -2.465691
v 2.391910 1.461565 -5.395789
v 1.095727 1.549738 -2.469185
v 2.384663 1.473315 -5.399283
v 1.085901 1.560052 -2.473777
v 2.374836 1.483629 -5.403874
v 1.073874 1.568535 -2.479289
v 2.362809 1.492111 -5.409387
v 1.060108 1.574858 -2.485509
v 2.349043 1.498435 -5.415607
v 1.045131 1.578781 -2.492200
v 2.334066 1.502358 -5.422297
v 1.029520 1.580152 -2.499103
v 2.318455 1.503729 -5.429201
v 1.013875 1.578918 -2.505953
v 2.302810 1.502495 -5.436051
v 0.998796 1.575126 -2.512487
v 2.287731 1.498703 -5.442585
v 0.984863 1.568923 -2.518454
v 2.273798 1.492500 -5.448552
v 0.972612 1.560547 -2.523625
v 2.261547 1.484124 -5.453723
v 0.962513 1.550320 -2.527801
v 2.251448 1.473897 -5.457899
v 0.954955 1.538635 -2.530821
v 2.243890 1.462211 -5.460918
v 0.950228 1.525940 -2.532569
v 2.239163 1.449517 -5.462667
v 0.948513 1.512724 -2.532979
v 2.237448 1.436301 -5.463077
v 0.949876 1.499494 -2.532034
v 2.238811 1.423071 -5.462132
v 0.954266 1.486760 -2.529771
v 2.243201 1.410336 -5.459868
v 0.961513 1.475009 -2.526276
v 2.250448 1.398586 -5.456374
v 0.971339 1.464695 -2.521685
v 2.260274 1.388272 -5.451783
v 0.983367 1.456213 -2.516173
v 2.272302 1.379790 -5.446271
v 0.997133 1.449889 -2.509952
v 2.286068 1.373466 -5.440050
v 1.012110 1.445966 -2.503262
v 2.301045 1.369543 -5.433360
vn 0.0564 -0.9971 0.0508
vn 0.1965 -0.9741 0.1118
vn 0.3379 -0.9252 0.1728
vn 0.4799 -0.8458 0.2331
vn 0.6186 -0.7297 0.2912
vn 0.7458 -0.5711 0.3430
vn 0.8474 -0.3682 0.3824
vn 0.9063 -0.1301 0.4021
vn 0.9097 0.1221 0.3970
vn 0.8571 0.3608 0.3676
vn 0.7609 0.5645 0.3200
vn 0.6379 0.7242 0.2617
vn 0.5023 0.8415 0.1990
vn 0.3624 0.9221 0.1354
vn 0.2223 0.9723 0.0724
vn 0.0829 0.9965 0.0105
vn -0.0564 0.9971 -0.0508
vn -0.1965 0.9741 -0.1118
vn -0.3379 0.9252 -0.1728
vn -0.4799 0.8458 -0.2331
vn -0.6186 0.7297 -0.2912
vn -0.7458 0.5711 -0.3430
vn -0.8474 0.3682 -0.3824
vn -0.9063 0.1301 -0.4021
vn -0.9097 -0.1221 -0.3970
vn -0.8571 -0.3608 -0.3676
vn -0.7609 -0.5645 -0.3200
vn -0.6379 -0.7242 -0.2617
vn -0.5023 -0.8415 -0.1990
vn -0.3624 -0.9221 -0.1354
vn 0.4025 -0.0239 -0.9151
vn -0.2223 -0.9723 -0.0724
vn -0.0829 -0.9965 -0.0105
vn -0.4025 0.0239 0.9151
vt 1.000000 0.500000
vt 1.000000 1.000000
vt 0.968750 1.000000
vt 0.968750 0.500000
vt 0.937500 1.000000
vt 0.937500 0.500000
vt 0.906250 1.000000
vt 0.906250 0.500000
vt 0.875000 1.000000
vt 0.875000 0.500000
vt 0.843750 1.000000
vt 0.843750 0.500000
vt 0.812500 1.000000
vt 0.812500 0.500000
vt 0.781250 1.000000
vt 0.781250 0.500000
vt 0.750000 1.000000
vt 0.750000 0.500000
vt 0.718750 1.000000
vt 0.718750 0.500000
vt 0.687500 1.000000
vt 0.687500 0.500000
vt 0.656250 1.000000
vt 0.656250 0.500000
vt 0.625000 1.000000
vt 0.625000 0.500000
vt 0.593750 1.000000
vt 0.593750 0.500000
vt 0.562500 1.000000
vt 0.562500 0.500000
vt 0.531250 1.000000
vt 0.531250 0.500000
vt 0.500000 1.000000
vt 0.500000 0.500000
vt 0.468750 1.000000
vt 0.468750 0.500000
vt 0.437500 1.000000
vt 0.437500 0.500000
vt 0.406250 1.000000
vt 0.406250 0.500000
vt 0.375000 1.000000
vt 0.375000 0.500000
vt 0.343750 1.000000
vt 0.343750 0.500000
vt 0.312500 1.000000
vt 0.312500 0.500000
vt 0.281250 1.000000
vt 0.281250 0.500000
vt 0.250000 1.000000
vt 0.250000 0.500000
vt 0.218750 1.000000
vt 0.218750 0.500000
vt 0.187500 1.000000
vt 0.187500 0.500000
vt 0.156250 1.000000
vt 0.156250 0.500000
vt 0.125000 1.000000
vt 0.125000 0.500000
vt 0.093750 1.000000
vt 0.093750 0.500000
vt 0.062500 1.000000
vt 0.062500 0.500000
vt 0.296822 0.485388
vt 0.250000 0.490000
vt 0.203178 0.485388
vt 0.158156 0.471731
vt 0.116663 0.449553
vt 0.080294 0.419706
vt 0.050447 0.383337
vt 0.028269 0.341844
vt 0.014612 0.296822
vt 0.010000 0.250000
vt 0.014612 0.203178
vt 0.028269 0.158156
vt 0.050447 0.116663
vt 0.080294 0.080294
vt 0.116663 0.050447
vt 0.158156 0.028269
vt 0.203178 0.014612
vt 0.250000 0.010000
vt 0.296822 0.014612
vt 0.341844 0.028269
vt 0.383337 0.050447
vt 0.419706 0.080294
vt 0.449553 0.116663
vt 0.471731 0.158156
vt 0.485388 0.203178
vt 0.490000 0.250000
vt 0.485388 0.296822
vt 0.471731 0.341844
vt 0.449553 0.383337
vt 0.419706 0.419706
vt 0.383337 0.449553
vt 0.341844 0.471731
vt 0.031250 1.000000
vt 0.031250 0.500000
vt 0.000000 1.000000
vt 0.000000 0.500000
vt 0.750000 0.490000
vt 0.796822 0.485388
vt 0.841844 0.471731
vt 0.883337 0.449553
vt 0.919706 0.419706
vt 0.949553 0.383337
vt 0.971731 0.341844
vt 0.985388 0.296822
vt 0.990000 0.250000
vt 0.985388 0.203178
vt 0.971731 0.158156
vt 0.949553 0.116663
vt 0.919706 0.080294
vt 0.883337 0.050447
vt 0.841844 0.028269
vt 0.796822 0.014612
vt 0.750000 0.010000
vt 0.703178 0.014612
vt 0.658156 0.028269
vt 0.616663 0.050447
vt 0.580294 0.080294
vt 0.550447 0.116663
vt 0.528269 0.158156
vt 0.514612 0.203178
vt 0.510000 0.250000
vt 0.514612 0.296822
vt 0.528269 0.341844
vt 0.550447 0.383337
vt 0.580294 0.419706
vt 0.616663 0.449553
vt 0.658156 0.471731
vt 0.703178 0.485388
s 0
f 1/1/1 2/2/1 4/3/1 3/4/1
f 3/4/2 4/3/2 6/5/2 5/6/2
f 5/6/3 6/5/3 8/7/3 7/8/3
f 7/8/4 8/7/4 10/9/4 9/10/4
f 9/10/5 10/9/5 12/11/5 11/12/5
f 11/12/6 12/11/6 14/13/6 13/14/6
f 13/14/7 14/13/7 16/15/7 15/16/7
f 15/16/8 16/15/8 18/17/8 17/18/8
f 17/18/9 18/17/9 20/19/9 19/20/9
f 19/20/10 20/19/10 22/21/10 21/22/10
f 21/22/11 22/21/11 24/23/11 23/24/11
f 23/24/12 24/23/12 26/25/12 25/26/12
f 25/26/13 26/25/13 28/27/13 27/28/13
f 27/28/14 28/27/14 30/29/14 29/30/14
f 29/30/15 30/29/15 32/31/15 31/32/15
f 31/32/16 32/31/16 34/33/16 33/34/16
f 33/34/17 34/33/17 36/35/17 35/36/17
f 35/36/18 36/35/18 38/37/18 37/38/18
f 37/38/19 38/37/19 40/39/19 39/40/19
f 39/40/20 40/39/20 42/41/20 41/42/20
f 41/42/21 42/41/21 44/43/21 43/44/21
f 43/44/22 44/43/22 46/45/22 45/46/22
f 45/46/23 46/45/23 48/47/23 47/48/23
f 47/48/24 48/47/24 50/49/24 49/50/24
f 49/50/25 50/49/25 52/51/25 51/52/25
f 51/52/26 52/51/26 54/53/26 53/54/26
f 53/54/27 54/53/27 56/55/27 55/56/27
f 55/56/28 56/55/28 58/57/28 57/58/28
f 57/58/29 58/57/29 60/59/29 59/60/29
f 59/60/30 60/59/30 62/61/30 61/62/30
f 4/63/31 2/64/31 64/65/31 62/66/31 60/67/31 58/68/31 56/69/31 54/70/31 52/71/31 50/72/31 48/73/31 46/74/31 44/75/31 42/76/31 40/77/31 38/78/31 36/79/31 34/80/31 32/81/31 30/82/31 28/83/31 26/84/31 24/85/31 22/86/31 20/87/31 18/88/31 16/89/31 14/90/31 12/91/31 10/92/31 8/93/31 6/94/31
f 61/62/32 62/61/32 64/95/32 63/96/32
f 63/96/33 64/95/33 2/97/33 1/98/33
f 1/99/34 3/100/34 5/101/34 7/102/34 9/103/34 11/104/34 13/105/34 15/106/34 17/107/34 19/108/34 21/109/34 23/110/34 25/111/34 27/112/34 29/113/34 31/114/34 33/115/34 35/116/34 37/117/34 39/118/34 41/119/34 43/120/34 45/121/34 47/122/34 49/123/34 51/124/34 53/125/34 55/126/34 57/127/34 59/128/34 61/129/34 63/130/34
